<?xml version="1.0"?>
<svg xmlns="http://www.w3.org/2000/svg" viewBox="0.0000 0.0000 20.0000 20.0000" width="26.0000mm" height="26.0000mm">
<path fill="#ff4040" d="M10.008.045C2.047.045.056,2.036.056,10s1.991,9.952,9.952,9.952S19.96,17.959,19.96,10,17.969.045,10.008.045Z"/>
<path fill="#ffffff" d="M8.177,5.732A2.018,2.018,0,1,1,6.159,7.75,2.019,2.019,0,0,1,8.177,5.732Zm2.494,8.53H5.664A.565.565,0,0,1,5.1,13.7V12.422a1.841,1.841,0,0,1,1.841-1.841H9.394a1.841,1.841,0,0,1,1.841,1.841V13.7A.565.565,0,0,1,10.671,14.262ZM12.814,6.94A1.513,1.513,0,1,1,11.3,8.453,1.513,1.513,0,0,1,12.814,6.94Zm1.537,6.093H12.413a.565.565,0,0,1-.565-.565v-.049a2.292,2.292,0,0,0-.2-.957.555.555,0,0,0-.062-.141.8.8,0,0,0-.061-.11,1.19,1.19,0,0,0-.092-.16,1.131,1.131,0,0,1,.908-.472h1.472a1.108,1.108,0,0,1,1.105,1.1v.785A.565.565,0,0,1,14.351,13.033Z"/>
</svg>
